# AST/ASF file generated using VICON BodyLanguage
# -----------------------------------------------
:version 1.10
:name VICON
:units
  mass 1.0
  length 0.45
  angle deg
:documentation
   .ast/.asf automatically generated from VICON data using
   VICON BodyBuilder and BodyLanguage model FoxedUp or BRILLIANT.MOD
:root
   order TX TY TZ RX RY RZ
   axis XYZ
   position 0 0 0  
   orientation 0 0 0 
:bonedata
  begin
     id 1 
     name lhipjoint
     direction 0.589753 -0.68606 0.426044 
     length 2.54082 
     axis 0 0 0  XYZ
  end
  begin
     id 2 
     name lfemur
     direction 0.34202 -0.939693 0  
     length 7.04539  
     axis 0 0 20  XYZ
    dof rx ry rz
    limits (-160.0 20.0)
           (-70.0 70.0)
           (-60.0 70.0)
  end
  begin
     id 3 
     name ltibia
     direction 0.34202 -0.939693 0   
     length 7.83772   
     axis 0 0 20   XYZ
    dof rx
    limits (-10.0 170.0)
  end
  begin
     id 4 
     name lfoot
     direction 0.0596604 -0.163915 0.984669   
     length 2.39542   
     axis -90 7.62852e-016 20   XYZ
    dof rx rz
    limits (-45.0 90.0)
           (-70.0 20.0)
  end
  begin
     id 5 
     name ltoes
     direction 1.53514e-011 -4.21954e-011 1   
     length 1.2047   
     axis -90 7.62852e-016 20   XYZ
    dof rx
    limits (-90.0 20.0)
  end
  begin
     id 6 
     name rhipjoint
     direction -0.580585 -0.69168 0.429534   
     length 2.52018  
     axis 0 0 0  XYZ 
  end
  begin
     id 7 
     name rfemur
     direction -0.34202 -0.939693 0   
     length 7.0101   
     axis 0 0 -20   XYZ
    dof rx ry rz
    limits (-160.0 20.0)
           (-70.0 70.0)
           (-70.0 60.0)
  end
  begin
     id 8 
     name rtibia
     direction -0.34202 -0.939693 0   
     length 7.70628   
     axis 0 0 -20   XYZ
    dof rx
    limits (-10.0 170.0)
 end
 begin
     id 9 
     name rfoot
     direction -0.0696237 -0.19129 0.979061   
     length 2.52466  
     axis -90 -7.62852e-016 -20   XYZ
    dof rx rz
    limits (-45.0 90.0)
           (-20.0 70.0)
  end
  begin
     id 10 
     name rtoes
     direction -1.53519e-011 -4.21793e-011 1   
     length 1.266   
     axis -90 -7.62852e-016 -20   XYZ
    dof rx
    limits (-90.0 20.0)
  end
  begin
     id 11 
     name lowerback
     direction 0.00381965 0.995707 -0.0924856   
     length 2.20825   
     axis 0 0 0   XYZ
    dof rx ry rz
    limits (-20.0 45.0)
           (-30.0 30.0)
           (-30.0 30.0)
  end
  begin
     id 12 
     name upperback
     direction -0.0139043 0.999634 -0.0231929   
     length 2.21517   
     axis 0 0 0   XYZ
    dof rx ry rz
    limits (-20.0 45.0)
           (-30.0 30.0)
           (-30.0 30.0)
  end
  begin
     id 13 
     name thorax
     direction -0.0143933 0.999691 0.0202892   
     length 2.22911   
     axis 0 0 0   XYZ
    dof rx ry rz
    limits (-20.0 45.0)
           (-30.0 30.0)
           (-30.0 30.0)
  end
  begin
     id 14 
     name lowerneck
     direction -0.0251153 0.981819 0.188153   
     length 1.61782   
     axis 0 0 0   XYZ
    dof rx ry rz
    limits (-20.0 45.0)
           (-30.0 30.0)
           (-30.0 30.0)
  end
  begin
     id 15 
     name upperneck
     direction 0.0563891 0.969357 -0.239095   
     length 1.64526   
     axis 0 0 0   XYZ
    dof rx ry rz
    limits (-20.0 45.0)
           (-30.0 30.0)
           (-30.0 30.0)
  end
  begin
     id 16
     name head
     direction 0.0208328 0.99459 -0.101773  
     length 1.67436  
     axis 0 0 0   XYZ
    dof rx ry rz
    limits (-20.0 45.0)
           (-30.0 30.0)
           (-30.0 30.0)
  end
  begin
     id 17 
     name lclavicle
     direction 0.917689 0.397224 0.00772059  
     length 3.31102  
     axis 0 0 0   XYZ
    dof ry rz
    limits (-20.0 10.0)
           (0.0 20.0)
  end
  begin
     id 18 
     name lhumerus
     direction 1 -4.4896e-011 2.32308e-027   
     length 5.25537   
     axis 180 -30 -90   XYZ
    dof rx ry rz
    limits (-60.0 90.0)
           (-90.0 90.0)
           (-90.0 90.0)
  end
  begin
     id 19
     name lradius
     direction 1 -4.49005e-011 -2.04271e-027   
     length 3.38855   
     axis 180 -30 -90   XYZ
    dof rx
    limits (-10.0 170.0)
  end
  begin
     id 20
     name lwrist
     direction 1 -4.48892e-011 2.56952e-028   
     length 1.69428   
     axis -5.12785e-016 90 90   XYZ
    dof ry
    limits (-180.0 0.0)
 end
  begin
     id 21 
     name lhand
     direction 1 -4.48966e-011 5.13905e-028   
     length 0.614516   
     axis -3.27915e-016 90 90   XYZ
    dof rx rz
    limits (-90.0 90.0)
           (-45.0 45.0)
  end
  begin
     id 22 
     name lfingers
     direction 1 -4.48979e-011 1.02781e-027   
     length 0.495439   
     axis -6.5583e-016 90 90   XYZ
    dof rx
    limits (0.0 90.0)
  end
  begin
     id 23
     name lthumb
     direction 0.707107 -6.35001e-011 0.707107   
     length 0.711354   
     axis -90 45 2.85299e-015   XYZ
    dof rx rz
    limits (-45.0 45.0)
           (-45.0 45.0)
  end
  begin
     id 24 
     name rclavicle
     direction -0.938556 0.342765 -0.0403177   
     length 3.27019  
     axis 0 0 0   XYZ 
    dof ry rz
    limits (-10.0 20.0)
           (-20.0 0.0)
  end
  begin
     id 25 
     name rhumerus
     direction -1 -4.48966e-011 2.52291e-027  
     length 5.38183   
     axis 180 30 90   XYZ
    dof rx ry rz
    limits (-90.0 60.0)
           (-90.0 90.0)
           (-90.0 90.0)
  end
  begin
     id 26 
     name rradius
     direction -1 -4.4896e-011 1.5797e-027   
     length 3.16988   
     axis 180 30 90   XYZ
    dof rx
    limits (-10.0 170.0)
  end
  begin
     id 27 
     name rwrist
     direction -1 -4.48947e-011 2.56952e-028   
     length 1.58494   
     axis -5.12785e-016 -90 -90   XYZ
    dof ry
    limits (-180.0 0.0)
  end
  begin
     id 28
     name rhand
     direction -1 -4.49098e-011 5.13905e-028   
     length 0.637679   
     axis -3.27915e-016 -90 -90   XYZ
    dof rx rz
    limits (-90.0 90.0)
           (-45.0 45.0)
  end
  begin
     id 29
     name rfingers
     direction -1 -4.49026e-011 1.02781e-027   
     length 0.514113   
     axis -6.5583e-016 -90 -90   XYZ
    dof rx
    limits (0.0 90.0)
  end
  begin
     id 30
     name rthumb
     direction -0.707107 -6.3491e-011 0.707107   
     length 0.738167   
     axis -90 -45 -2.85299e-015   XYZ
    dof rx rz
    limits (-45.0 45.0)
           (-45.0 45.0)
  end
:hierarchy
  begin
    root lhipjoint rhipjoint lowerback
    lhipjoint lfemur
    lfemur ltibia
    ltibia lfoot
    lfoot ltoes
    rhipjoint rfemur
    rfemur rtibia
    rtibia rfoot
    rfoot rtoes
    lowerback upperback
    upperback thorax
    thorax lowerneck lclavicle rclavicle
    lowerneck upperneck
    upperneck head
    lclavicle lhumerus
    lhumerus lradius
    lradius lwrist
    lwrist lhand lthumb
    lhand lfingers
    rclavicle rhumerus
    rhumerus rradius
    rradius rwrist
    rwrist rhand rthumb
    rhand rfingers
  end

#!OML:ASF H:\Swim\Project 1\Capture day 1\Session 1\swimmer.ASF
:FULLY-SPECIFIED
:DEGREES
1597
root 5.87662 10.3706 15.5335 88.3345 -1.87667 -1.50739
lowerback 3.13661 0.347033 1.04904
upperback -3.34915 0.386878 -2.94028
thorax -5.20395 0.0926561 -3.67514
lowerneck -10.7145 -5.30392 -10.3261
upperneck 0.912358 -6.61145 16.7881
head 3.00124 -2.84254 6.4601
rclavicle 7.95139e-016 -9.72802e-015
rhumerus 26.3222 27.86 31.791
rradius 40.9755
rwrist -29.0681
rhand 13.0311 -3.7577
rfingers 7.12502
rthumb 37.9952 -29.5582
lclavicle 7.95139e-016 -9.72802e-015
lhumerus 34.3228 -10.0041 -28.5487
lradius 37.552
lwrist 11.0484
lhand 12.9508 -348.655
lfingers 7.12502
lthumb 37.9194 397.166
rfemur -9.34887 1.38222 -4.37685
rtibia 100.237
rfoot -9.52716 -6.45916
rtoes -17.5977
lfemur -10.492 -2.00322 -0.98665
ltibia 94.6784
lfoot 1.2882 7.78102
ltoes 10.0257
1598
root 5.87996 10.3757 15.5053 88.0188 -1.88503 -1.52911
lowerback 3.44299 0.330198 1.04534
upperback -3.28696 0.364643 -2.91815
thorax -5.31555 0.0811033 -3.65162
lowerneck -10.7977 -5.29985 -10.2626
upperneck 0.72196 -6.58477 16.7353
head 2.95092 -2.83277 6.43371
rclavicle -3.57812e-015 1.27843e-014
rhumerus 25.8483 28.7377 31.8486
rradius 41.8243
rwrist -29.3176
rhand 13.1346 -3.13798
rfingers 7.12502
rthumb 38.093 -28.9118
lclavicle -3.57812e-015 1.27843e-014
lhumerus 33.6021 -11.1986 -28.9836
lradius 38.4817
lwrist 11.6374
lhand 12.8738 -349.253
lfingers 7.12502
lthumb 37.8466 396.588
rfemur -9.12387 1.38291 -4.26406
rtibia 99.7413
rfoot -9.56611 -6.51447
rtoes -17.5297
lfemur -10.1454 -1.98745 -1.17186
ltibia 93.9092
lfoot 1.47432 8.00303
ltoes 10.1906
1599
root 5.88322 10.3805 15.4775 87.7099 -1.89334 -1.55504
lowerback 3.74985 0.310519 1.04422
upperback -3.23137 0.338346 -2.90193
thorax -5.43468 0.0671406 -3.63541
lowerneck -10.8664 -5.29305 -10.1941
upperneck 0.519766 -6.55499 16.6843
head 2.89426 -2.82239 6.40763
rclavicle 1.19271e-015 -1.37907e-015
rhumerus 25.3813 29.6113 31.8693
rradius 42.6415
rwrist -29.384
rhand 13.2337 -2.32835
rfingers 7.12502
rthumb 38.1866 -28.0766
lclavicle 1.19271e-015 -1.37907e-015
lhumerus 32.9137 -12.4176 -29.4242
lradius 39.3991
lwrist 12.3543
lhand 12.7763 -349.767
lfingers 7.12502
lthumb 37.7546 396.099
rfemur -8.8983 1.38765 -4.15228
rtibia 99.2161
rfoot -9.61018 -6.58615
rtoes -17.4771
lfemur -9.80573 -1.97239 -1.35467
ltibia 93.119
lfoot 1.70488 8.20383
ltoes 10.41
1600
root 5.88636 10.385 15.4502 87.4077 -1.89983 -1.58442
lowerback 4.05231 0.283818 1.05291
upperback -3.17442 0.302776 -2.89583
thorax -5.55054 0.0480191 -3.63434
lowerneck -10.9659 -5.28548 -10.144
upperneck 0.353934 -6.52617 16.6787
head 2.85629 -2.80884 6.39869
rclavicle 2.18663e-015 -6.53505e-015
rhumerus 24.9263 30.4623 31.8259
rradius 43.4141
rwrist -29.377
rhand 13.332 -1.40315
rfingers 7.12502
rthumb 38.2794 -27.1258
lclavicle 2.18663e-015 -6.53505e-015
lhumerus 32.2475 -13.633 -29.8612
lradius 40.2889
lwrist 13.2364
lhand 12.693 -350.177
lfingers 7.12502
lthumb 37.6758 395.71
rfemur -8.66965 1.39925 -4.03544
rtibia 98.6553
rfoot -9.6598 -6.6688
rtoes -17.4154
lfemur -9.47341 -1.95889 -1.53401
ltibia 92.3042
lfoot 1.97692 8.37709
ltoes 10.6682
1601
root 5.88928 10.389 15.4236 87.1188 -1.92153 -1.61523
lowerback 4.34078 0.25466 1.05071
upperback -3.11655 0.262522 -2.90431
thorax -5.65783 0.0268276 -3.64156
lowerneck -11.1029 -5.28376 -10.1369
upperneck 0.241617 -6.5071 16.7526
head 2.84679 -2.79479 6.42111
rclavicle 5.76476e-015 -5.11871e-015
rhumerus 24.4694 31.3021 31.7297
rradius 44.179
rwrist -29.459
rhand 13.4062 -0.501129
rfingers 7.12502
rthumb 38.3494 -26.2044
lclavicle 5.76476e-015 -5.11871e-015
lhumerus 31.6135 -14.8445 -30.2963
lradius 41.1587
lwrist 14.2823
lhand 12.6553 -350.479
lfingers 7.12502
lthumb 37.6402 395.417
rfemur -8.44299 1.41332 -3.93492
rtibia 98.0554
rfoot -9.71906 -6.76992
rtoes -17.3672
lfemur -9.15565 -1.94651 -1.73156
ltibia 91.4606
lfoot 2.27816 8.52467
ltoes 10.9592
1602
root 5.89203 10.3923 15.3978 86.8432 -1.9388 -1.64661
lowerback 4.61447 0.225792 1.05148
upperback -3.05847 0.222816 -2.91505
thorax -5.75643 0.00589448 -3.65245
lowerneck -11.2717 -5.28954 -10.1671
upperneck 0.171684 -6.49869 16.8852
head 2.86051 -2.78179 6.46725
rclavicle 4.57205e-015 2.43511e-015
rhumerus 24.0041 32.1367 31.5926
rradius 44.9838
rwrist -29.7584
rhand 13.4456 0.245452
rfingers 7.12502
rthumb 38.3866 -25.4475
lclavicle 4.57205e-015 2.43511e-015
lhumerus 31.0081 -16.0592 -30.7154
lradius 42.0243
lwrist 15.3853
lhand 12.6613 -350.694
lfingers 7.12502
lthumb 37.6459 395.201
rfemur -8.21574 1.43028 -3.8226
rtibia 97.4113
rfoot -9.78708 -6.89979
rtoes -17.3327
lfemur -8.85339 -1.93453 -1.92225
ltibia 90.5872
lfoot 2.59484 8.63995
ltoes 11.2547
1603
root 5.89461 10.3948 15.373 86.5824 -1.95548 -1.67696
lowerback 4.87133 0.1983 1.04868
upperback -3.00083 0.184896 -2.92369
thorax -5.84575 -0.0138061 -3.65887
lowerneck -11.4403 -5.2974 -10.1904
upperneck 0.0807572 -6.49122 17.0105
head 2.86762 -2.77006 6.51
rclavicle -4.57205e-015 1.12313e-014
rhumerus 23.522 32.9673 31.4374
rradius 45.8885
rwrist -30.3126
rhand 13.4616 0.752755
rfingers 7.12502
rthumb 38.4017 -24.936
lclavicle -4.57205e-015 1.12313e-014
lhumerus 30.4194 -17.281 -31.1055
lradius 42.9062
lwrist 16.3938
lhand 12.7032 -350.891
lfingers 7.12502
lthumb 37.6855 394.993
rfemur -7.98766 1.44844 -3.70367
rtibia 96.7196
rfoot -9.86472 -7.06748
rtoes -17.3147
lfemur -8.56834 -1.92401 -2.11277
ltibia 89.6818
lfoot 2.91372 8.73002
ltoes 11.4764
